<?xml version="1.0" encoding="utf-8"?>
<!-- Generator: Adobe Illustrator 16.0.0, SVG Export Plug-In . SVG Version: 6.00 Build 0)  -->
<!DOCTYPE svg PUBLIC "-//W3C//DTD SVG 1.1//EN" "http://www.w3.org/Graphics/SVG/1.1/DTD/svg11.dtd">
<svg version="1.1" xmlns="http://www.w3.org/2000/svg" xmlns:xlink="http://www.w3.org/1999/xlink" x="0px" y="0px" width="1080px"
	 height="360px" viewBox="0 0 1080 360" enable-background="new 0 0 1080 360" xml:space="preserve">
<g id="Layer_5">
	<text transform="matrix(1 0 0 1 200.208 298.125)" font-family="'Pistara'" font-size="200">CandleLight</text>
</g>
<g id="Layer_3">
	<path fill="#F47621" d="M93.721,296.334c0,0,44,2.332,73-51.668s-15.666-111.667-40-142.333S93.054,42.334,117.054,7
		c0,0-45.333,15.666-50.333,58s11.333,46.333-17.667,92.333c-29,46-21.334,74.333-15.334,91
		C39.72,265,65.722,294.668,93.721,296.334z"/>
</g>
<g id="Layer_4">
	
		<linearGradient id="SVGID_1_" gradientUnits="userSpaceOnUse" x1="-156.3794" y1="296.3486" x2="-156.3794" y2="34.333" gradientTransform="matrix(-1 0 0 1 -60.1348 0)">
		<stop  offset="0" style="stop-color:#E9A000"/>
		<stop  offset="1" style="stop-color:#E9CA00"/>
	</linearGradient>
	<path fill="url(#SVGID_1_)" stroke="#E56915" stroke-miterlimit="10" d="M94.722,296.348c0,0,51.667-24.014,58-77.014
		c6.333-53-44.001-100.668-52.667-123.001s-15.666-36.667-5.333-62c0,0-26.333,23-17,73.333s7.667,56-0.333,68.667
		c0,0,2.667-23.667-13-31.333c0,0,10,14.667-17.667,57.667C19.055,245.666,75.389,291.363,94.722,296.348z"/>
</g>
<g id="Layer_1">
	<g id="Layer_2">
	</g>
</g>
</svg>
