<?xml version="1.0" encoding="utf-8"?>
<!-- Generator: Adobe Illustrator 16.0.0, SVG Export Plug-In . SVG Version: 6.00 Build 0)  -->
<!DOCTYPE svg PUBLIC "-//W3C//DTD SVG 1.1//EN" "http://www.w3.org/Graphics/SVG/1.1/DTD/svg11.dtd">
<svg version="1.1" xmlns="http://www.w3.org/2000/svg" xmlns:xlink="http://www.w3.org/1999/xlink" x="0px" y="0px" width="451px"
	 height="196px" viewBox="0 0 451 196" enable-background="new 0 0 451 196" xml:space="preserve">
<g id="Layer_2" display="none">
</g>
<g id="Layer_3" display="none">
	<rect display="inline" stroke="#FFFFFF" stroke-miterlimit="10" width="451" height="196"/>
</g>
<g id="Layer_1">
	<text transform="matrix(1 0 0 1 125.1084 152.1904)" fill="#7D7F88" font-family="'Pistara'" font-size="75">CandleLight</text>
	<path fill="#7D7F88" d="M100.33,149.67c-15.62,29.07-38.58,30.49-42.52,30.52c0,0,30.51-14.18,34.25-45.48
		c3.74-31.31-25.99-59.46-31.1-72.65c-5.12-13.19-9.26-21.66-3.15-36.62c0,0-15.56,13.59-10.04,43.31
		c5.51,29.73,4.52,33.08-0.2,40.56c0,0,1.58-13.98-7.68-18.51c0,0,5.91,8.66-10.43,34.06c-16.34,25.39,16.91,52.37,28.34,55.33
		c-0.38,0-0.58-0.01-0.58-0.01c-16.54-0.98-31.9-18.5-35.44-28.35c-3.55-9.84-8.07-26.58,9.05-53.74
		c17.13-27.17,7.49-29.53,10.44-54.54C44.22,18.55,71,9.3,71,9.3c-14.18,20.87-8.67,38.19,5.71,56.3
		C91.08,83.71,117.46,117.77,100.33,149.67z"/>
	<path display="none" fill="#7D7F89" stroke="#FFFFFF" stroke-miterlimit="10" d="M92.06,134.71c-3.74,31.3-34.25,45.48-34.25,45.48
		H57.8c-11.43-2.96-44.68-29.94-28.34-55.33C45.8,99.46,39.89,90.8,39.89,90.8c9.26,4.53,7.68,18.51,7.68,18.51
		c4.72-7.48,5.71-10.83,0.2-40.56c-5.52-29.72,10.04-43.31,10.04-43.31c-6.11,14.96-1.97,23.43,3.15,36.62
		C66.07,75.25,95.8,103.4,92.06,134.71z"/>
	<path display="none" fill="#FFFFFF" d="M92.06,134.71c-3.74,31.3-34.25,45.48-34.25,45.48H57.8
		c-11.43-2.96-44.68-29.94-28.34-55.33C45.8,99.46,39.89,90.8,39.89,90.8c9.26,4.53,7.68,18.51,7.68,18.51
		c4.72-7.48,5.71-10.83,0.2-40.56c-5.52-29.72,10.04-43.31,10.04-43.31c-6.11,14.96-1.97,23.43,3.15,36.62
		C66.07,75.25,95.8,103.4,92.06,134.71z"/>
</g>
</svg>
